<?xml version="1.0" encoding="UTF-8" standalone="no"?>
<!-- Generator: Adobe Illustrator 22.0.1, SVG Export Plug-In . SVG Version: 6.00 Build 0)  -->

<svg
   xmlns:dc="http://purl.org/dc/elements/1.1/"
   xmlns:cc="http://creativecommons.org/ns#"
   xmlns:rdf="http://www.w3.org/1999/02/22-rdf-syntax-ns#"
   xmlns:svg="http://www.w3.org/2000/svg"
   xmlns="http://www.w3.org/2000/svg"
   xmlns:xlink="http://www.w3.org/1999/xlink"
   xmlns:sodipodi="http://sodipodi.sourceforge.net/DTD/sodipodi-0.dtd"
   xmlns:inkscape="http://www.inkscape.org/namespaces/inkscape"
   version="1.1"
   id="Layer_1"
   x="0px"
   y="0px"
   viewBox="0 0 735 852"
   style="enable-background:new 0 0 735 852;"
   xml:space="preserve"
   sodipodi:docname="naomi_sticker.svg"
   inkscape:version="0.92.4 (f8dce91, 2019-08-02)"
   inkscape:export-filename="/home/rashton/Downloads/naomi_hex.png"
   inkscape:export-xdpi="100.50704"
   inkscape:export-ydpi="100.50704"><metadata
   id="metadata4673"><rdf:RDF><cc:Work
       rdf:about=""><dc:format>image/svg+xml</dc:format><dc:type
         rdf:resource="http://purl.org/dc/dcmitype/StillImage" /><dc:title>broom</dc:title></cc:Work></rdf:RDF></metadata><defs
   id="defs4671"><inkscape:perspective
   sodipodi:type="inkscape:persp3d"
   inkscape:vp_x="0 : 426 : 1"
   inkscape:vp_y="0 : 1000 : 0"
   inkscape:vp_z="735 : 426 : 1"
   inkscape:persp3d-origin="367.5 : 284 : 1"
   id="perspective4366" /><clipPath
   id="_clipPath_EHexGvzAMKosfSbYewhBiDPisItqZZkf"><rect
     x="-49"
     y="129.5"
     width="237"
     height="273.5"
     id="rect4796" /></clipPath><clipPath
   id="clipPath5041"
   clipPathUnits="userSpaceOnUse"><g
     id="use5043"
     inkscape:label="Clip"><g
       id="g5586"
       transform="translate(-0.42214269,-2.5949287)">
	<path
   d="m 66.75,6.96 c -4.516,3.656 -7.574,13.633 -8.68,19.621 4.586,-6.52 11.414,-10.969 18.074,-10.969 7.008,0 13.75,4.477 18.484,10.922 C 93.902,20.3 90.184,10.495 85.586,6.96 83.301,5.202 80.18,3.933 76.145,3.933 c -4.04,0 -7.254,1.293 -9.395,3.027"
   id="path5578"
   inkscape:connector-curvature="0"
   style="fill:#e31837" />
	<path
   d="M 86.086,56.55 C 92.543,44.714 95.094,36.741 94.5,31.71 93.945,28.468 87.383,21.522 83.172,19.999 c 0.582,3.797 -2.41,11.371 -6.27,19.508 0,0 -7.945,15.309 -10.637,19.695 -2.73,4.445 -19.688,34.312 -19.688,34.312 l 7.359,20.531 C 64.383,95.917 80.453,66.878 86.086,56.55"
   id="path5580"
   inkscape:connector-curvature="0"
   style="fill:#e31837" />
	
	
	
	
	<path
   d="m 98.586,114.194 7.363,-20.531 c 0,0 -11.91,-20.664 -18.949,-32.953 -2.312,4.23 -5.34,9.539 -9.234,16.531 5.281,9.492 11.546,20.613 20.82,36.953"
   id="path5582"
   inkscape:connector-curvature="0"
   style="fill:#e31837" />
	<path
   d="m 69.531,19.944 c -5.195,2.141 -10.734,9.109 -11.656,11.711 -0.762,4.977 1.398,11.762 7.762,23.598 1.598,-3.129 7.266,-13.066 9.145,-17.027 -3.864,-8.157 -5.727,-14.688 -5.251,-18.282"
   id="path5584"
   inkscape:connector-curvature="0"
   style="fill:#e31837" />
	
	
</g></g></clipPath><clipPath
   id="clipPath5041-3"
   clipPathUnits="userSpaceOnUse"><use
     height="100%"
     width="100%"
     id="use5043-9"
     xlink:href="#g5037"
     y="0"
     x="0" /></clipPath><clipPath
   clipPathUnits="userSpaceOnUse"
   id="clipPath3136"><path
     sodipodi:type="star"
     style="fill:#00ff00;fill-opacity:1;stroke:none;stroke-width:65.18018341;stroke-linecap:butt;stroke-linejoin:miter;stroke-miterlimit:2;stroke-dasharray:none;stroke-opacity:1;paint-order:normal"
     id="path3138"
     sodipodi:sides="6"
     sodipodi:cx="375.62952"
     sodipodi:cy="420.5249"
     sodipodi:r1="414.84982"
     sodipodi:r2="359.27054"
     sodipodi:arg1="0.52359878"
     sodipodi:arg2="1.0471976"
     inkscape:flatsided="true"
     inkscape:rounded="0"
     inkscape:randomized="0"
     d="M 734.9,627.94982 375.62951,835.37473 16.35903,627.94981 16.359032,213.09999 375.62952,5.6750793 734.9,213.09999 Z"
     transform="matrix(0.72013403,0,0,0.72785554,194.8798,50.361067)" /></clipPath><clipPath
   clipPathUnits="userSpaceOnUse"
   id="clipPath3140"><path
     sodipodi:type="star"
     style="fill:#00ff00;fill-opacity:1;stroke:none;stroke-width:65.18018341;stroke-linecap:butt;stroke-linejoin:miter;stroke-miterlimit:2;stroke-dasharray:none;stroke-opacity:1;paint-order:normal"
     id="path3142"
     sodipodi:sides="6"
     sodipodi:cx="375.62952"
     sodipodi:cy="420.5249"
     sodipodi:r1="414.84982"
     sodipodi:r2="359.27054"
     sodipodi:arg1="0.52359878"
     sodipodi:arg2="1.0471976"
     inkscape:flatsided="true"
     inkscape:rounded="0"
     inkscape:randomized="0"
     d="M 734.9,627.94982 375.62951,835.37473 16.35903,627.94981 16.359032,213.09999 375.62952,5.6750793 734.9,213.09999 Z" /></clipPath><clipPath
   clipPathUnits="userSpaceOnUse"
   id="clipPath3144"><path
     sodipodi:type="star"
     style="fill:#00ff00;fill-opacity:1;stroke:none;stroke-width:65.18018341;stroke-linecap:butt;stroke-linejoin:miter;stroke-miterlimit:2;stroke-dasharray:none;stroke-opacity:1;paint-order:normal"
     id="path3147"
     sodipodi:sides="6"
     sodipodi:cx="375.62952"
     sodipodi:cy="420.5249"
     sodipodi:r1="414.84982"
     sodipodi:r2="359.27054"
     sodipodi:arg1="0.52359878"
     sodipodi:arg2="1.0471976"
     inkscape:flatsided="true"
     inkscape:rounded="0"
     inkscape:randomized="0"
     d="M 734.9,627.94982 375.62951,835.37473 16.35903,627.94981 16.359032,213.09999 375.62952,5.6750793 734.9,213.09999 Z" /></clipPath>

</defs><sodipodi:namedview
   pagecolor="#ffffff"
   bordercolor="#666666"
   borderopacity="1"
   objecttolerance="10"
   gridtolerance="10"
   guidetolerance="10"
   inkscape:pageopacity="0"
   inkscape:pageshadow="2"
   inkscape:window-width="1920"
   inkscape:window-height="1052"
   id="namedview4669"
   showgrid="false"
   inkscape:zoom="0.70046728"
   inkscape:cx="425.365"
   inkscape:cy="507.51859"
   inkscape:window-x="1920"
   inkscape:window-y="0"
   inkscape:window-maximized="1"
   inkscape:current-layer="g1024"
   showguides="false" />
<style
   type="text/css"
   id="style4217">
	.st0{fill:#ED7D15;}
	.st1{opacity:0.25;fill:url(#SVGID_1_);enable-background:new    ;}
	.st2{fill:#AC5D12;}
	.st3{fill:#E6B35A;}
	.st4{fill:#E5B259;}
	.st5{fill:#FFFFFF;}
	.st6{stroke:#000000;stroke-width:10;stroke-miterlimit:10;}
	.st7{fill:none;stroke:#000000;stroke-width:0.75;stroke-miterlimit:10;}
</style>

<title
   id="title4221">broom</title>
<linearGradient
   id="SVGID_1_"
   gradientUnits="userSpaceOnUse"
   x1="366.1355"
   y1="974.39"
   x2="367.4355"
   y2="510.87"
   gradientTransform="matrix(1,0,0,-1,54.511848,911.55924)">
	<stop
   offset="0"
   style="stop-color:#FFFFFF;stop-opacity:0.83"
   id="stop4223" />
	<stop
   offset="0.56"
   style="stop-color:#FFFFFF;stop-opacity:0.37"
   id="stop4225" />
	<stop
   offset="1"
   style="stop-color:#FFFFFF;stop-opacity:0"
   id="stop4227" />
</linearGradient>



























































































































































































































<g
   inkscape:groupmode="layer"
   id="layer1"
   inkscape:label="regions"
   style="display:inline"
   sodipodi:insensitive="true"><path
     style="fill:#e6e6e6;fill-opacity:1;stroke:#ffffff;stroke-opacity:1"
     class="st3"
     d="m 367,633.9 c 0.3,-0.3 0.6,-0.6 0.9,-0.9 h -0.3 c -0.1,0.3 -0.3,0.6 -0.6,0.9 z"
     id="path4234"
     inkscape:connector-curvature="0"
     clip-path="url(#clipPath3144)" /><path
     style="fill:#e6e6e6;fill-opacity:1;stroke:#ffffff;stroke-opacity:1"
     class="st4"
     d="m 367,633.9 c 0.3,-0.3 0.6,-0.6 0.9,-0.9 h -0.3 c -0.1,0.3 -0.3,0.6 -0.6,0.9 z"
     id="path4236"
     inkscape:connector-curvature="0"
     clip-path="url(#clipPath3140)" /><g
     style="isolation:isolate"
     id="g4851"
     transform="matrix(1.5272238,0,0,1.5272238,-306.73023,-177.59171)" /><g
     inkscape:label="map"
     id="layer2"
     transform="matrix(1.3886304,0,0,1.373899,-270.61602,-69.19102)"
     clip-path="url(#clipPath3136)"><path
       id="path3204"
       d="m 729.6462,121.09563 35.82431,1.46222 65.79976,-15.35328 40.94207,31.43766 -4.38665,16.08439 10.23552,3.65554 25.58879,64.33754 29.24434,0.73111 24.85768,38.74874 -77.49749,20.47104 -2.92443,24.12658 -17.5466,-13.89106 -45.32873,88.46412 -96.50631,-7.31109 z"
       style="fill:#e6e6e6;fill-opacity:1;fill-rule:evenodd;stroke:#000000;stroke-width:1px;stroke-linecap:butt;stroke-linejoin:miter;stroke-opacity:1"
       inkscape:connector-curvature="0" /><path
       sodipodi:nodetypes="cccccccccccc"
       id="path3202"
       d="m 747.9239,320.68823 27.05102,15.35327 9.50441,29.24434 9.50441,7.31109 28.51323,-4.38666 9.50441,8.77331 -13.89106,32.89987 -57.02646,67.99309 5.11776,48.25315 -97.96853,-8.7733 -10.23552,-204.71036 z"
       style="fill:#e6e6e6;fill-opacity:1;fill-rule:evenodd;stroke:#ffffff;stroke-width:3.5;stroke-linecap:butt;stroke-linejoin:round;stroke-miterlimit:4;stroke-dasharray:none;stroke-opacity:1"
       inkscape:connector-curvature="0" /><path
       id="path3200"
       d="m 603.89555,118.1712 27.78212,24.85768 46.79094,16.8155 5.84887,-17.54661 46.05983,-20.47103 16.08438,24.85769 v 25.58879 l -30.70655,114.78402 -76.03528,10.23552 -91.38855,-82.61525 8.7733,-73.84195 z"
       style="fill:#e6e6e6;fill-opacity:1;fill-rule:evenodd;stroke:#ffffff;stroke-width:3.5;stroke-linecap:butt;stroke-linejoin:miter;stroke-miterlimit:4;stroke-dasharray:none;stroke-opacity:1"
       inkscape:connector-curvature="0" /><path
       id="path3198"
       d="m 367.01642,49.447006 21.20215,-28.513228 82.61525,-12.4288433 87.0019,16.8154933 5.84887,51.908698 13.15995,9.504409 -27.78212,126.481755 -239.07245,-24.12658 z"
       style="fill:#e6e6e6;fill-opacity:1;fill-rule:evenodd;stroke:#ffffff;stroke-width:1px;stroke-linecap:butt;stroke-linejoin:miter;stroke-opacity:1"
       inkscape:connector-curvature="0" /><path
       id="path3196"
       d="m 519.81808,162.0377 13.15995,-4.38665 2.92444,-7.31108 -1.46222,-2.92444 35.09321,-65.799754 24.12657,12.428843 10.96663,24.126581 -13.89106,15.35327 11.69773,16.08439 -10.96662,27.78212 19.00882,97.23742 -115.51513,1.46221 -21.20215,-90.65744 z"
       style="fill:#e6e6e6;fill-opacity:1;fill-rule:evenodd;stroke:#ffffff;stroke-width:3.5;stroke-linecap:butt;stroke-linejoin:round;stroke-miterlimit:4;stroke-dasharray:none;stroke-opacity:1"
       inkscape:connector-curvature="0" /><path
       id="path3194"
       d="m 302.67888,552.4496 8.0422,25.58879 v 25.58879 l 9.50441,-2.92443 21.20214,37.28653 -11.69773,18.27771 17.5466,12.42884 19.73992,-22.66436 57.02646,43.86651 89.92634,-118.43957 -108.93516,-65.79975 z"
       style="fill:#e6e6e6;fill-opacity:1;fill-rule:evenodd;stroke:#ffffff;stroke-width:1px;stroke-linecap:butt;stroke-linejoin:miter;stroke-opacity:1"
       inkscape:connector-curvature="0" /><path
       id="path3192"
       d="m 332.65433,548.79405 -23.39547,26.31991 -11.69774,3.65554 -31.43766,21.93325 -21.20214,54.10202 -22.66436,17.54661 -5.84887,-4.38666 -4.38665,-38.01763 19.00882,-38.74875 8.7733,-9.50441 -10.23552,-22.66436 h -7.31108 l -26.3199,-30.70655 29.24433,-71.64863 73.84195,7.31109 z"
       style="fill:#e6e6e6;fill-opacity:1;fill-rule:evenodd;stroke:#ffffff;stroke-width:3.5;stroke-linecap:butt;stroke-linejoin:miter;stroke-miterlimit:4;stroke-dasharray:none;stroke-opacity:1"
       inkscape:connector-curvature="0" /><path
       sodipodi:nodetypes="ccccccccccccccccc"
       id="path3190"
       d="m 656.1698,452.28775 54.83313,52.6398 18.27771,-4.38665 36.18987,13.5255 3.65554,22.29881 -10.96662,6.94553 -14.62217,80.42193 -15.35328,1.09666 -4.02109,25.22324 -33.26544,24.85768 9.50441,35.45876 -54.46758,11.33218 -16.08438,-19.37437 -19.37437,19.37437 -24.12658,-79.69081 -138.9106,-177.29379 z"
       style="fill:#e6e6e6;fill-opacity:1;fill-rule:evenodd;stroke:#ffffff;stroke-width:3.5;stroke-linecap:butt;stroke-linejoin:miter;stroke-miterlimit:4;stroke-dasharray:none;stroke-opacity:1"
       inkscape:connector-curvature="0" /><path
       id="path3188"
       d="m 496.35105,495.82448 27.64999,40.4634 4.72073,-2.69756 18.88292,24.95243 v 18.88292 l 10.79024,-6.7439 18.20853,40.4634 8.76707,8.76707 8.09268,40.4634 -26.9756,-14.83658 -28.32438,15.51097 -0.67439,10.79024 -41.81218,10.79024 -1.34878,10.79024 -35.06828,46.53291 -21.58048,-16.85975 -20.2317,-6.7439 -5.39512,-34.39389 16.18536,-7.41829 -4.04634,-32.37072 35.74267,-13.4878 -37.76584,-127.45971 53.9512,-20.90609 z"
       style="fill:#e6e6e6;fill-opacity:1;fill-rule:evenodd;stroke:#ffffff;stroke-width:3.5;stroke-linecap:butt;stroke-linejoin:miter;stroke-miterlimit:4;stroke-dasharray:none;stroke-opacity:1"
       inkscape:connector-curvature="0" /><path
       sodipodi:nodetypes="ccccccccccccccccc"
       id="path3186"
       d="m 652.74524,272.54849 25.02117,-13.608 11.41316,5.26762 35.99537,-38.62918 -2.63381,-34.23949 24.58221,-28.09395 2.19483,23.2653 -1.3169,23.70427 -5.26761,7.90142 18.87562,11.85213 22.38736,-3.51174 10.09626,21.94839 -26.77704,44.33576 -6.58452,35.11743 -31.16672,-8.77936 -45.75531,12.45374 z"
       style="fill:#e6e6e6;fill-opacity:1;fill-rule:evenodd;stroke:#ffffff;stroke-width:3.5;stroke-linecap:butt;stroke-linejoin:miter;stroke-miterlimit:4;stroke-dasharray:none;stroke-opacity:1"
       inkscape:connector-curvature="0" /><path
       sodipodi:nodetypes="cccccccccccc"
       id="path3184"
       d="m 556.1723,256.30668 47.8475,-9.21833 27.21601,1.75588 -4.38967,-13.60801 7.46245,-1.3169 20.19252,17.11975 9.6573,43.45782 22.38736,8.77936 17.11974,32.92259 -72.4297,39.50711 -99.6457,-67.16209 z"
       style="fill:#e6e6e6;fill-opacity:1;fill-rule:evenodd;stroke:#ffffff;stroke-width:3.5;stroke-linecap:butt;stroke-linejoin:round;stroke-miterlimit:4;stroke-dasharray:none;stroke-opacity:1"
       inkscape:connector-curvature="0" /><path
       id="path3182"
       d="m 616.74987,460.42675 7.46246,-7.46246 33.36156,33.36156 18.43665,-15.36387 -4.38968,-5.26762 12.2911,-13.608 -0.87794,-21.9484 -7.46245,-5.70658 1.3169,-17.55871 18.43666,-12.2911 11.85213,0.43896 12.2911,-10.97419 -1.75587,-61.45551 -32.92259,5.70659 -18.43666,21.94839 -57.94376,5.70658 -32.92259,-26.33807 -27.65497,50.92027 z"
       style="fill:#e6e6e6;fill-opacity:1;fill-rule:evenodd;stroke:#ffffff;stroke-width:3.5;stroke-linecap:butt;stroke-linejoin:round;stroke-miterlimit:4;stroke-dasharray:none;stroke-opacity:1"
       inkscape:connector-curvature="0" /><path
       id="path3180"
       d="m 561.50847,268.16114 -0.93119,22.659 9.62231,13.03668 1.55199,13.03668 11.79509,5.27675 6.51834,18.93423 -6.51834,0.3104 -6.51834,9.62231 4.03517,14.27827 -3.41437,11.48469 -86.29042,1.55199 -4.03516,-95.60233 z"
       style="fill:#e6e6e6;fill-opacity:1;fill-rule:evenodd;stroke:#ffffff;stroke-width:3.5;stroke-linecap:butt;stroke-linejoin:round;stroke-miterlimit:4;stroke-dasharray:none;stroke-opacity:1"
       inkscape:connector-curvature="0" /><path
       sodipodi:nodetypes="cccccccccccc"
       id="path3178"
       d="m 493.5315,321.54946 5.58714,-27.93575 31.03972,-4.96635 23.27979,-18.00304 7.44953,-2.48318 0.3104,-12.72628 -13.03668,-13.34708 -18.62383,-1.55198 -37.24766,-40.66203 -56.18189,8.38072 14.58867,92.18796 z"
       style="fill:#e6e6e6;fill-opacity:1;fill-rule:evenodd;stroke:#ffffff;stroke-width:3.5;stroke-linecap:butt;stroke-linejoin:round;stroke-miterlimit:4;stroke-dasharray:none;stroke-opacity:1"
       inkscape:connector-curvature="0" /><path
       id="path3176"
       d="m 446.43034,218.11648 50.4813,51.35924 -10.53523,3.07277 -2.19484,11.41317 -9.65729,10.09626 16.24181,25.46014 -62.33344,20.19252 -21.50942,-121.15513 z"
       style="fill:#e6e6e6;fill-opacity:1;fill-rule:evenodd;stroke:#ffffff;stroke-width:3.5;stroke-linecap:butt;stroke-linejoin:round;stroke-miterlimit:4;stroke-dasharray:none;stroke-opacity:1"
       inkscape:connector-curvature="0" /><path
       id="path3174"
       d="m 455.20969,323.0298 17.99769,-10.53523 9.65729,6.14555 6.58452,-3.95071 5.26761,-0.43897 5.70659,15.80285 -10.53523,17.99768 -31.60569,-2.63381 z"
       style="fill:#e6e6e6;fill-opacity:1;fill-rule:evenodd;stroke:#ffffff;stroke-width:3.5;stroke-linecap:butt;stroke-linejoin:round;stroke-miterlimit:4;stroke-dasharray:none;stroke-opacity:1"
       inkscape:connector-curvature="0" /><path
       id="path3172"
       d="m 300.693,477.10753 -3.07278,13.16903 12.2911,40.38505 -5.70658,14.92491 36.8733,29.41085 12.2911,-14.48594 19.75356,3.51174 17.11975,-14.48594 11.41316,7.46245 35.11743,-3.51174 7.90142,-16.68078 -18.87561,-79.89215 -94.81707,-3.51175 z"
       style="fill:#e6e6e6;fill-opacity:1;fill-rule:evenodd;stroke:#ffffff;stroke-width:3.5;stroke-linecap:butt;stroke-linejoin:miter;stroke-miterlimit:4;stroke-dasharray:none;stroke-opacity:1"
       inkscape:connector-curvature="0" /><path
       id="path3170"
       d="m 493.3999,481.93617 37.31227,9.6573 17.99768,-5.70658 15.36388,8.34039 -4.82865,6.58451 14.04697,7.90143 40.82402,-29.84982 11.85213,8.77936 4.38968,-16.68078 -10.9742,-7.46246 0.43897,-7.90142 -24.5822,-32.48362 0.43897,-13.16904 9.65729,-11.41316 -36.8733,3.95071 -10.9742,-24.5822 -27.21601,-21.50943 -22.82633,14.92491 z"
       style="fill:#e6e6e6;fill-opacity:1;fill-rule:evenodd;stroke:#ffffff;stroke-width:3.5;stroke-linecap:butt;stroke-linejoin:round;stroke-miterlimit:4;stroke-dasharray:none;stroke-opacity:1"
       inkscape:connector-curvature="0" /><path
       id="path3168"
       d="m 462.67215,340.58852 15.36387,-1.75588 14.48594,3.51175 18.87562,8.77936 21.50943,-15.36388 14.48594,8.34039 v 23.2653 l -22.38736,3.51174 0.43896,32.92259 11.41317,30.28879 -7.02349,8.34039 -11.41316,-0.87794 -9.21833,29.41085 -8.77935,6.14555 -3.51175,19.75355 -48.28646,-67.60105 z"
       style="fill:#e6e6e6;fill-opacity:1;fill-rule:evenodd;stroke:#ffffff;stroke-width:3.5;stroke-linecap:butt;stroke-linejoin:round;stroke-miterlimit:4;stroke-dasharray:none;stroke-opacity:1"
       inkscape:connector-curvature="0" /><path
       id="path3166"
       d="m 360.06071,153.93499 158.61295,-0.3104 9.31192,5.27675 -9.00152,22.65899 -3.10397,20.17582 -9.00152,13.03668 -33.52289,4.34556 -10.24311,16.45105 -16.76145,-16.45105 -79.46167,21.7278 z"
       style="fill:#e6e6e6;fill-opacity:1;fill-rule:evenodd;stroke:#ffffff;stroke-width:3.5;stroke-linecap:butt;stroke-linejoin:round;stroke-miterlimit:4;stroke-dasharray:none;stroke-opacity:1"
       inkscape:connector-curvature="0" /><path
       id="path3164"
       d="m 423.07134,499.09664 -7.13914,10.8639 25.45257,6.82873 16.14065,-23.59018 39.42044,4.34556 -28.55654,-57.73387 13.03668,-18.31344 -3.72476,-12.41588 -17.38224,-27.00456 6.51834,-14.27827 -7.44953,-7.44953 4.03516,-19.86542 -37.86846,-4.34556 -20.17581,77.90969 z"
       style="fill:#e6e6e6;fill-opacity:1;fill-rule:evenodd;stroke:#ffffff;stroke-width:3.5;stroke-linecap:butt;stroke-linejoin:round;stroke-miterlimit:4;stroke-dasharray:none;stroke-opacity:1"
       inkscape:connector-curvature="0" /><path
       id="path3162"
       d="m 257.94005,410.32305 42.8348,67.66658 29.17734,-10.24311 13.65747,3.41437 23.90058,-10.5535 1.86239,19.55502 7.13913,-2.48318 1.55199,12.72629 25.76296,9.31191 2.17278,-3.41437 17.38224,4.03516 6.82874,-6.82873 0.93119,-32.9021 -17.07184,-42.52441 18.93423,-17.69264 3.72476,-20.17582 -76.97849,-18.62383 z"
       style="fill:#e6e6e6;fill-opacity:1;fill-rule:evenodd;stroke:#ffffff;stroke-width:3.5;stroke-linecap:butt;stroke-linejoin:round;stroke-miterlimit:4;stroke-dasharray:none;stroke-opacity:1"
       inkscape:connector-curvature="0" /><path
       sodipodi:nodetypes="cccccccc"
       id="path3160"
       d="m 383.70584,378.00729 53.0672,2.96627 10.9742,-41.26298 12.88983,0.18182 -2.32563,-19.844 -50.61332,-45.20144 -89.44641,-0.10363 z"
       style="fill:#e6e6e6;fill-opacity:1;fill-rule:evenodd;stroke:#ffffff;stroke-width:3.5;stroke-linecap:butt;stroke-linejoin:miter;stroke-miterlimit:4;stroke-dasharray:none;stroke-opacity:1"
       inkscape:connector-curvature="0" /><path
       id="path3158"
       d="m 372.24476,222.94512 47.8475,3.07278 1.75587,24.5822 23.70427,32.92259 13.16904,38.19021 -18.43665,7.02348 -20.63149,-13.16903 -11.41317,-27.21601 -35.99537,-2.19484 -12.2911,7.46245 -38.62917,-47.8475 z"
       style="fill:#e6e6e6;fill-opacity:1;fill-rule:evenodd;stroke:#ffffff;stroke-width:3.5;stroke-linecap:butt;stroke-linejoin:round;stroke-miterlimit:4;stroke-dasharray:none;stroke-opacity:1"
       inkscape:connector-curvature="0" /><path
       id="path3156"
       d="m 233.53091,114.08109 49.60337,-11.85213 9.6573,-28.093948 18.87562,-0.877936 32.04465,-19.753554 25.89911,-5.267615 v 14.046972 l 32.48362,8.779358 2.63381,18.436651 26.77704,27.216012 -18.43665,28.97188 6.14555,10.09626 -7.46246,21.94839 -8.77935,-11.41316 -5.70659,11.41316 0.43897,19.31459 -10.53523,21.07046 -33.36156,34.67846 h -47.8475 z"
       style="fill:#e6e6e6;fill-opacity:1;fill-rule:evenodd;stroke:#ffffff;stroke-width:3.5;stroke-linecap:butt;stroke-linejoin:round;stroke-miterlimit:4;stroke-dasharray:none;stroke-opacity:1"
       inkscape:connector-curvature="0" /><path
       id="path3154"
       d="m 338.00527,290.98515 1.75587,20.19252 16.24181,4.38968 22.82633,42.57988 h 14.48594 l 9.6573,-9.21832 6.58451,30.72775 -56.62685,24.14323 -40.82402,-86.91564 z"
       style="fill:#e6e6e6;fill-opacity:1;fill-rule:evenodd;stroke:#ffffff;stroke-width:3.5;stroke-linecap:butt;stroke-linejoin:round;stroke-miterlimit:4;stroke-dasharray:none;stroke-opacity:1"
       inkscape:connector-curvature="0" /><path
       id="path3152"
       d="m 334.93249,405.55576 19.75356,17.11975 23.2653,-3.95071 3.07277,-21.50943 -43.45782,-43.45782 -10.9742,-32.92259 3.95072,-38.1902 -69.35693,3.95071 43.45782,110.6199 z"
       style="fill:#e6e6e6;fill-opacity:1;fill-rule:evenodd;stroke:#ffffff;stroke-width:3.5;stroke-linecap:butt;stroke-linejoin:round;stroke-miterlimit:4;stroke-dasharray:none;stroke-opacity:1"
       inkscape:connector-curvature="0" /><path
       id="path3150"
       d="m 267.33144,161.92859 29.84982,41.26298 -5.26762,9.21832 7.02349,21.07046 3.95071,-7.02348 11.85213,2.6338 49.1644,61.89448 -4.38967,11.85213 -17.11975,-6.14555 -4.82865,7.02348 -38.62917,-3.51174 -24.14324,16.68078 -91.74428,-27.21601 11.41316,-112.37578 z"
       style="fill:#e6e6e6;fill-opacity:1;fill-rule:evenodd;stroke:#ffffff;stroke-width:3.5;stroke-linecap:butt;stroke-linejoin:round;stroke-miterlimit:4;stroke-dasharray:none;stroke-opacity:1"
       inkscape:connector-curvature="0" /><path
       sodipodi:nodetypes="cccccccccccccc"
       id="path3141"
       d="m 151.0635,260.79364 32.47619,-7.87302 18.69841,7.87302 7.87301,-22.63492 1.21072,-19.78873 23.18008,-16.62397 23.83143,1.96826 -7.87302,-16.73016 26.57143,-11.80953 L 232.74604,113.1746 217,105.30159 l -14.7619,17.71428 -85.61905,34.44444 z"
       style="opacity:1;fill:#e6e6e6;fill-opacity:1;fill-rule:evenodd;stroke:#ffffff;stroke-width:3.5;stroke-linecap:butt;stroke-linejoin:round;stroke-miterlimit:4;stroke-dasharray:none;stroke-opacity:1"
       inkscape:connector-curvature="0" /><path
       id="path3148"
       d="m 139.15282,499.05592 7.90142,23.70427 31.16672,3.51174 40.38505,31.60569 13.16903,-6.58452 7.46246,-50.48131 -10.09627,-13.608 8.77936,-7.90142 27.65498,19.31458 45.65266,-35.55639 -18.43665,-24.14324 5.26761,-17.11975 21.50943,0.43897 2.19484,-14.04697 14.04697,-1.75587 -12.73007,-25.02117 -23.70426,-8.77936 -155.39463,18.43665 z"
       style="fill:#e6e6e6;fill-opacity:1;fill-rule:evenodd;stroke:#ffffff;stroke-width:3.5;stroke-linecap:butt;stroke-linejoin:miter;stroke-miterlimit:4;stroke-dasharray:none;stroke-opacity:1"
       inkscape:connector-curvature="0" /><path
       id="path3146"
       d="m 64.967247,442.86803 7.901421,34.67847 23.265298,14.9249 15.363874,-5.26761 15.36388,14.92491 24.14323,0.43896 -3.51174,-15.80284 21.07046,-18.43665 -23.2653,-9.65729 8.77936,-18.43665 15.36387,-4.38968 38.19021,2.6338 41.70195,-53.55408 h 15.36387 l 14.92491,22.38736 17.55872,-1.3169 1.75587,-16.68078 9.65729,-9.21832 V 364.29278 L 277.4277,343.22232 74.62454,345.85613 Z"
       style="fill:#e6e6e6;fill-opacity:1;fill-rule:evenodd;stroke:#ffffff;stroke-width:3.5;stroke-linecap:butt;stroke-linejoin:round;stroke-miterlimit:4;stroke-dasharray:none;stroke-opacity:1"
       inkscape:connector-curvature="0" /><path
       sodipodi:nodetypes="cccccccccccccccccccc"
       id="path3133"
       d="m 10.707692,417.48224 67.239213,31.40007 35.973725,-36.53309 -8.85714,-17.71429 9.84127,-33.46032 10.8254,-2.95238 27.55555,-53.14286 -48.22222,-12.79365 24.60317,-10.82539 -0.98412,-7.87302 22.63492,-11.80952 -36.4127,-108.25397 -44.285713,-8.85714 -11.80952,10.82539 -43.30159,-30.50793 -2.95238,55.11111 26.571428,82.66666 -17.700087,30.40175 11.80953,59.60698 z"
       style="fill:#ebebeb;fill-opacity:1;fill-rule:evenodd;stroke:#000000;stroke-width:3.49974108;stroke-linecap:butt;stroke-linejoin:round;stroke-miterlimit:4;stroke-dasharray:none;stroke-opacity:1"
       inkscape:connector-curvature="0" /><path
       sodipodi:nodetypes="cccccccccccccccccccccccccccccccccccccccccccccccccccccccccccccccccccccccccccccccccccccccc"
       id="path2161"
       d="m 17.542012,126.4028 41.752972,32.01061 13.917657,-12.52589 45.928269,11.13413 80.72241,-30.61885 16.70119,-20.87649 16.70119,8.3506 50.10356,-12.52589 8.3506,-27.835313 22.26825,-1.391766 30.61884,-19.48472 23.66002,-4.175297 20.87649,-29.22708 80.72241,-11.1341257 89.07301,16.7011887 4.17529,52.887097 30.61885,16.701189 11.13412,23.660017 27.83532,25.05178 47.32003,16.70119 4.1753,-18.09296 44.5365,-19.48472 h 38.96944 l 64.02123,-13.91765 41.75297,32.01061 -6.95883,16.70119 12.52589,2.78353 25.05179,64.02122 27.83531,-1.39176 26.44355,40.3612 -77.89415,21.38715 -1.96825,26.57143 -18.69841,-17.71428 -38.38096,76.7619 8.85715,7.87302 -13.77778,35.42857 -56.09524,64.95238 8.85714,59.04762 -10.82539,5.90476 -14.76191,81.68254 -16.73016,0.98413 -1.96825,24.60317 -34.44444,25.5873 10.82539,36.4127 -55.11111,10.8254 -15.74603,-19.68254 -20.66667,21.65079 -16.73016,-62 -27.55555,-17.71428 -27.55556,16.73016 -0.98412,9.84127 -41.33334,11.80952 -0.98412,11.80952 -36.4127,46.25397 -23.61905,-19.68254 -18.69841,-6.88889 -3.93651,-34.44444 -44.28572,-36.4127 -19.68254,25.5873 -19.68254,-12.79365 12.79366,-19.68254 -21.6508,-36.4127 -9.84127,3.93651 v -31.49206 l -13.77778,4.92063 -27.55555,21.6508 -22.63492,55.11111 -23.61905,17.71429 -6.63418,-6.72681 -3.20709,-34.60653 18.69841,-40.34921 8.85715,-8.85714 -10.8254,-22.63492 -8.85714,-0.98413 -41.33334,-32.47619 -32.47619,-2.95238 -5.90476,-19.68254 H 127.62435 L 112.86245,486.91315 97.116419,492.81791 73.497371,480.02426 65.624355,444.59569 9.529117,418.02426 33.148165,353.07188 20.354514,293.04014 39.052926,261.54807 16.418006,176.91315 Z"
       style="fill:none;fill-opacity:1;fill-rule:evenodd;stroke:#000000;stroke-width:6.19999981;stroke-linecap:butt;stroke-linejoin:round;stroke-miterlimit:4;stroke-dasharray:none;stroke-opacity:1"
       inkscape:connector-curvature="0" /><path
       id="path3144"
       d="m 125.98378,359.02517 22.38736,7.02348 7.46246,-3.51174 11.41316,10.53523 18.43665,-12.73007 7.90143,7.46246 46.09162,-2.19484 9.6573,-9.6573 12.2911,-0.43897 13.608,10.53523 17.55872,-0.87793 3.51174,-11.85213 7.02349,-6.58452 -5.26762,-32.48363 5.26762,-15.36387 -14.92491,-7.46246 -10.9742,12.73007 h -16.24181 v -14.92491 l -20.63149,10.09627 -11.41317,-25.02117 -27.216,-14.04698 -17.99769,-7.90142 -32.04465,8.34039 -21.9484,12.73007 -0.43896,7.02349 -23.70427,12.2911 46.5306,11.85213 z"
       style="fill:#e6e6e6;fill-opacity:1;fill-rule:evenodd;stroke:#ffffff;stroke-width:3.5;stroke-linecap:butt;stroke-linejoin:round;stroke-miterlimit:4;stroke-dasharray:none;stroke-opacity:1"
       inkscape:connector-curvature="0" /></g></g><g
   inkscape:label="subtext"
   id="g1024"
   inkscape:groupmode="layer"
   style="display:inline">






<text
   xml:space="preserve"
   style="font-style:normal;font-variant:normal;font-weight:normal;font-stretch:normal;font-size:25.10614204px;line-height:1.25;font-family:Aller;-inkscape-font-specification:Aller;letter-spacing:0px;word-spacing:0px;display:inline;fill:#b5132c;fill-opacity:1;stroke:none;stroke-width:1.10762382"
   x="429.8699"
   y="514.51208"
   id="text3766"
   transform="rotate(30)"><tspan
     sodipodi:role="line"
     id="tspan3764"
     x="429.8699"
     y="514.51208"
     style="font-style:normal;font-variant:normal;font-weight:500;font-stretch:normal;font-size:25.10614204px;font-family:Roboto;-inkscape-font-specification:'Roboto Medium';fill:#494949;fill-opacity:1;stroke-width:1.10762382">naomi.unaids.org</tspan></text>


<rect
   style="fill:#e6e6e6;fill-opacity:1;stroke:none;stroke-width:2;stroke-miterlimit:4;stroke-dasharray:none;stroke-opacity:1"
   id="rect4364"
   width="0"
   height="111.35425"
   x="-67.098068"
   y="-68.813889" /></g><g
   inkscape:groupmode="layer"
   id="layer5"
   inkscape:label="bubbles"
   style="display:none"
   sodipodi:insensitive="true"><ellipse
     transform="matrix(1.3886304,0,0,1.373899,-270.61602,-69.19102)"
     style="display:inline;fill:#d85a5d;fill-opacity:1;stroke:none;stroke-width:21.07964134;stroke-linecap:butt;stroke-linejoin:round;stroke-miterlimit:4;stroke-dasharray:none;stroke-opacity:0.98039216;paint-order:normal"
     id="path925"
     cx="404.60742"
     cy="329.66919"
     rx="26.729992"
     ry="27.0166" /><ellipse
     style="display:inline;fill:#f3999f;fill-opacity:1;stroke:none;stroke-width:30.23600006;stroke-linecap:butt;stroke-linejoin:round;stroke-miterlimit:4;stroke-dasharray:none;stroke-opacity:0.98039216;paint-order:normal"
     id="path925-1"
     cx="281.95462"
     cy="287.37689"
     rx="38.5457"
     ry="38.545696" /><ellipse
     transform="matrix(1.3886304,0,0,1.373899,-270.61602,-69.19102)"
     style="display:inline;fill:#9c3040;fill-opacity:1;stroke:none;stroke-width:17.43124008;stroke-linecap:butt;stroke-linejoin:round;stroke-miterlimit:4;stroke-dasharray:none;stroke-opacity:0.98039216;paint-order:normal"
     id="path925-1-5"
     cx="459.09549"
     cy="271.47958"
     rx="22.103649"
     ry="22.340649" /><ellipse
     transform="matrix(1.3886304,0,0,1.373899,-270.61602,-69.19102)"
     style="display:inline;fill:#b52e13;fill-opacity:1;stroke:none;stroke-width:17.43124008;stroke-linecap:butt;stroke-linejoin:round;stroke-miterlimit:4;stroke-dasharray:none;stroke-opacity:0.98039216;paint-order:normal"
     id="path925-1-5-5"
     cx="478.62894"
     cy="326.55188"
     rx="22.103649"
     ry="22.340649" /><ellipse
     style="display:inline;fill:#dc616c;fill-opacity:1;stroke:none;stroke-width:31.35585213;stroke-linecap:butt;stroke-linejoin:round;stroke-miterlimit:4;stroke-dasharray:none;stroke-opacity:0.98039216;paint-order:normal"
     id="path925-1-5-5-4"
     cx="480.39359"
     cy="380.17209"
     rx="39.97332"
     ry="39.973316" /><ellipse
     transform="matrix(1.3886304,0,0,1.373899,-270.61602,-69.19102)"
     style="display:inline;fill:#ef9ea4;fill-opacity:1;stroke:none;stroke-width:14.18822002;stroke-linecap:butt;stroke-linejoin:round;stroke-miterlimit:4;stroke-dasharray:none;stroke-opacity:0.98039216;paint-order:normal"
     id="path925-1-5-5-4-9"
     cx="513.06946"
     cy="255.37354"
     rx="17.991344"
     ry="18.18425" /><ellipse
     transform="matrix(1.3886304,0,0,1.373899,-270.61602,-69.19102)"
     style="display:inline;fill:#d85a5d;fill-opacity:1;stroke:none;stroke-width:11.75595379;stroke-linecap:butt;stroke-linejoin:round;stroke-miterlimit:4;stroke-dasharray:none;stroke-opacity:0.98039216;paint-order:normal"
     id="path925-1-5-5-4-9-8"
     cx="454.98318"
     cy="188.35161"
     rx="14.907115"
     ry="15.066951" /><ellipse
     transform="matrix(1.3886304,0,0,1.373899,-270.61602,-69.19102)"
     style="display:inline;fill:#f4bcc0;fill-opacity:1;stroke:none;stroke-width:11.75595474;stroke-linecap:butt;stroke-linejoin:round;stroke-miterlimit:4;stroke-dasharray:none;stroke-opacity:0.98039216;paint-order:normal"
     id="path925-1-5-5-4-9-8-3"
     cx="342.92282"
     cy="154.06129"
     rx="14.907116"
     ry="15.066951" /><ellipse
     transform="matrix(1.3886304,0,0,1.373899,-270.61602,-69.19102)"
     style="display:inline;fill:#e0afb2;fill-opacity:1;stroke:none;stroke-width:6.48604584;stroke-linecap:butt;stroke-linejoin:round;stroke-miterlimit:4;stroke-dasharray:none;stroke-opacity:0.98039216;paint-order:normal"
     id="path925-1-5-5-4-9-8-3-8"
     cx="479.14297"
     cy="88.078445"
     rx="8.224618"
     ry="8.3128023" /><ellipse
     transform="matrix(1.3886304,0,0,1.373899,-270.61602,-69.19102)"
     style="display:inline;fill:#db6f72;fill-opacity:1;stroke:none;stroke-width:14.9989748;stroke-linecap:butt;stroke-linejoin:round;stroke-miterlimit:4;stroke-dasharray:none;stroke-opacity:0.98039216;paint-order:normal"
     id="path925-1-5-5-4-9-8-3-8-5"
     cx="275.58383"
     cy="253.29535"
     rx="19.019423"
     ry="19.223349" /><ellipse
     transform="matrix(1.3886304,0,0,1.373899,-270.61602,-69.19102)"
     style="display:inline;fill:#9c3040;fill-opacity:1;stroke:none;stroke-width:15.80973339;stroke-linecap:butt;stroke-linejoin:round;stroke-miterlimit:4;stroke-dasharray:none;stroke-opacity:0.98039216;paint-order:normal"
     id="path925-1-5-5-4-9-8-3-8-5-2"
     cx="357.31589"
     cy="349.41211"
     rx="20.047503"
     ry="20.262453" /><ellipse
     transform="matrix(1.3886304,0,0,1.373899,-270.61602,-69.19102)"
     style="display:inline;fill:#eba2a8;fill-opacity:1;stroke:none;stroke-width:24.7280407;stroke-linecap:butt;stroke-linejoin:round;stroke-miterlimit:4;stroke-dasharray:none;stroke-opacity:0.98039216;paint-order:normal"
     id="path925-1-5-5-4-9-8-3-8-5-2-2"
     cx="330.07187"
     cy="363.43997"
     rx="31.356344"
     ry="31.692549" /><ellipse
     style="display:inline;fill:#f36b77;fill-opacity:1;stroke:none;stroke-width:22.39704132;stroke-linecap:butt;stroke-linejoin:round;stroke-miterlimit:4;stroke-dasharray:none;stroke-opacity:0.98039216;paint-order:normal"
     id="path925-1-5-5-4-9-8-3-8-5-2-2-2-0"
     cx="232.70181"
     cy="522.22015"
     rx="28.55238"
     ry="28.552374" /><ellipse
     style="display:inline;fill:#e7a7ac;fill-opacity:1;stroke:none;stroke-width:24.63674736;stroke-linecap:butt;stroke-linejoin:round;stroke-miterlimit:4;stroke-dasharray:none;stroke-opacity:0.98039216;paint-order:normal"
     id="path925-1-5-5-4-9-8-3-8-5-2-2-2-0-3"
     cx="345.48367"
     cy="540.77924"
     rx="31.407619"
     ry="31.407614" /><ellipse
     transform="matrix(1.3886304,0,0,1.373899,-270.61602,-69.19102)"
     style="display:inline;fill:#f86573;fill-opacity:1;stroke:none;stroke-width:12.97209167;stroke-linecap:butt;stroke-linejoin:round;stroke-miterlimit:4;stroke-dasharray:none;stroke-opacity:0.98039216;paint-order:normal"
     id="path925-1-5-5-4-9-8-3-8-5-2-2-2-0-3-4-6"
     cx="564.98737"
     cy="445.00931"
     rx="16.449234"
     ry="16.625607" /><ellipse
     transform="matrix(1.3886304,0,0,1.373899,-270.61602,-69.19102)"
     style="display:inline;fill:#b5132c;fill-opacity:1;stroke:none;stroke-width:15.80973434;stroke-linecap:butt;stroke-linejoin:round;stroke-miterlimit:4;stroke-dasharray:none;stroke-opacity:0.98039216;paint-order:normal"
     id="path925-1-5-5-4-9-8-3-8-5-2-2-2-0-3-4-6-3"
     cx="643.63519"
     cy="403.96481"
     rx="20.047503"
     ry="20.262457" /><ellipse
     transform="matrix(1.3886304,0,0,1.373899,-270.61602,-69.19102)"
     style="display:inline;fill:#b7686e;fill-opacity:1;stroke:none;stroke-width:11.75595856;stroke-linecap:butt;stroke-linejoin:round;stroke-miterlimit:4;stroke-dasharray:none;stroke-opacity:0.98039216;paint-order:normal"
     id="path925-1-5-5-4-9-8-3-8-5-2-2-2-0-3-4-6-3-6"
     cx="620.50354"
     cy="300.5744"
     rx="14.907119"
     ry="15.066957" /><ellipse
     transform="matrix(1.3886304,0,0,1.373899,-270.61602,-69.19102)"
     style="display:inline;fill:#f7b9bd;fill-opacity:1;stroke:none;stroke-width:8.51293755;stroke-linecap:butt;stroke-linejoin:round;stroke-miterlimit:4;stroke-dasharray:none;stroke-opacity:0.98039216;paint-order:normal"
     id="path925-1-5-5-4-9-8-3-8-5-2-2-2-0-3-4-6-3-6-3"
     cx="556.76282"
     cy="190.42978"
     rx="10.794811"
     ry="10.910558" /><ellipse
     transform="matrix(1.3886304,0,0,1.373899,-270.61602,-69.19102)"
     style="display:inline;fill:#eba2a8;fill-opacity:1;stroke:none;stroke-width:8.51293755;stroke-linecap:butt;stroke-linejoin:round;stroke-miterlimit:4;stroke-dasharray:none;stroke-opacity:0.98039216;paint-order:normal"
     id="path925-1-5-5-4-9-8-3-8-5-2-2-2-0-3-4-6-3-6-3-3"
     cx="360.40012"
     cy="519.82446"
     rx="10.794811"
     ry="10.910558" /><ellipse
     transform="matrix(1.3886304,0,0,1.373899,-270.61602,-69.19102)"
     style="display:inline;fill:#cf7178;fill-opacity:1;stroke:none;stroke-width:8.51293755;stroke-linecap:butt;stroke-linejoin:round;stroke-miterlimit:4;stroke-dasharray:none;stroke-opacity:0.98039216;paint-order:normal"
     id="path925-1-5-5-4-9-8-3-8-5-2-2-2-0-3-4-6-3-6-3-3-4"
     cx="240.11516"
     cy="453.32211"
     rx="10.794811"
     ry="10.910558" /><ellipse
     style="display:inline;fill:#dc616c;fill-opacity:1;stroke:none;stroke-width:17.91763496;stroke-linecap:butt;stroke-linejoin:round;stroke-miterlimit:4;stroke-dasharray:none;stroke-opacity:0.98039216;paint-order:normal"
     id="path925-1-5-5-4-9-8-3-8-5-2-2-2-0-4"
     cx="408.29889"
     cy="699.24481"
     rx="22.841906"
     ry="22.841902" /><ellipse
     transform="matrix(1.3886304,0,0,1.373899,-270.61602,-69.19102)"
     style="display:inline;fill:#b5132c;fill-opacity:1;stroke:none;stroke-width:17.02586746;stroke-linecap:butt;stroke-linejoin:round;stroke-miterlimit:4;stroke-dasharray:none;stroke-opacity:0.98039216;paint-order:normal"
     id="path925-1-5-5-4-9-8-3-8-5-2-2-2-0-3-4"
     cx="498.67642"
     cy="397.73026"
     rx="21.589617"
     ry="21.821104" /><circle
     r="23.555704"
     style="display:inline;fill:#d85a5d;fill-opacity:0.96585364;stroke:none;stroke-width:18.47755623;stroke-linecap:butt;stroke-linejoin:round;stroke-miterlimit:4;stroke-dasharray:none;stroke-opacity:0.98039216;paint-order:normal"
     id="path925-9"
     cx="551.7746"
     cy="652.84723" /></g><g
   inkscape:groupmode="layer"
   id="layer4"
   inkscape:label="text"
   style="display:inline">



<flowRoot
   xml:space="preserve"
   id="flowRoot5625"
   style="font-style:normal;font-weight:normal;font-size:40px;line-height:1.25;font-family:sans-serif;letter-spacing:0px;word-spacing:0px;fill:#000000;fill-opacity:1;stroke:none"><flowRegion
     id="flowRegion5627"><rect
       id="rect5629"
       width="194.45251"
       height="208.77496"
       x="136.27962"
       y="260.4455" /></flowRegion><flowPara
     id="flowPara5631" /></flowRoot>

<text
   xml:space="preserve"
   style="font-style:normal;font-weight:normal;font-size:53.82711029px;line-height:1.25;font-family:sans-serif;letter-spacing:0px;word-spacing:0px;display:inline;fill:none;fill-opacity:1;stroke:none;stroke-width:45.35433197;stroke-linecap:butt;stroke-linejoin:miter;stroke-miterlimit:2;stroke-dasharray:none;stroke-opacity:1;paint-order:normal"
   x="57.215477"
   y="440.18671"
   id="text5808-3-5"><tspan
     sodipodi:role="line"
     id="tspan5806-6-4"
     x="57.215477"
     y="440.18671"
     style="font-style:normal;font-variant:normal;font-weight:normal;font-stretch:normal;font-size:134.56777954px;line-height:1.25;font-family:Roboto;-inkscape-font-specification:Roboto;fill:none;fill-opacity:1;stroke:none;stroke-width:45.35433197;stroke-linecap:butt;stroke-linejoin:miter;stroke-miterlimit:2;stroke-dasharray:none;stroke-opacity:1;paint-order:normal">Naomi</tspan></text>


<g
   id="g1905"
   transform="matrix(1,0,0,1.0440082,16.174759,285.41155)" /><rect
   y="299.7327"
   x="7.577806"
   height="252.53465"
   width="719.84442"
   id="rect1902"
   style="display:inline;fill:#b5132c;fill-opacity:1;stroke:none;stroke-width:21.32982635;stroke-miterlimit:4;stroke-dasharray:none;stroke-opacity:1" /><text
   xml:space="preserve"
   style="font-style:normal;font-weight:normal;font-size:63.12976074px;line-height:1.25;font-family:sans-serif;letter-spacing:0px;word-spacing:0px;display:inline;fill:#ffffff;fill-opacity:1;stroke:none;stroke-width:1.57824397;stroke-opacity:0.97863243"
   x="211.2218"
   y="481.45023"
   id="text5808-3"><tspan
     sodipodi:role="line"
     id="tspan5806-6"
     x="211.2218"
     y="481.45023"
     style="font-style:normal;font-variant:normal;font-weight:500;font-stretch:normal;font-size:157.82440186px;line-height:1.25;font-family:Roboto;-inkscape-font-specification:'Roboto Medium';fill:#ffffff;fill-opacity:1;stroke:none;stroke-width:1.57824397;stroke-opacity:0.97863243">Naomi</tspan></text>



<text
   xml:space="preserve"
   style="font-style:normal;font-weight:normal;font-size:40px;line-height:1.25;font-family:sans-serif;letter-spacing:0px;word-spacing:0px;fill:#000000;fill-opacity:1;stroke:none"
   x="-325.49701"
   y="35.40226"
   id="text4741"><tspan
     sodipodi:role="line"
     id="tspan4739"
     x="-325.49701"
     y="70.792885" /></text>




<g
   id="g3128"
   transform="matrix(25.74444,0,0,25.74444,-3444.5002,-13895.049)"><g
     id="g1957"
     transform="matrix(0.27442276,0,0,0.27442276,61.161338,517.96969)"><g
       id="g3105"
       transform="matrix(0.30841954,0,0,0.30841954,218.16391,98.572579)"><g
         id="g3126"
         transform="matrix(0.44625175,0,0,0.44625175,184.51934,69.202074)"><path
           style="fill:#ffffff;fill-opacity:1;stroke-width:0.55846882"
           d="m 19.25064,122.28034 c -0.767305,-0.7673 -0.877586,-3.5696 -0.877586,-22.298852 0,-18.729266 0.110281,-21.531573 0.877586,-22.298877 0.778903,-0.778895 4.762705,-0.877587 35.42289,-0.877587 30.660176,0 34.643991,0.09869 35.422885,0.877587 0.767305,0.767304 0.877587,3.569611 0.877587,22.298877 0,18.729252 -0.110282,21.531552 -0.877587,22.298852 -0.778894,0.7789 -4.762709,0.8776 -35.422885,0.8776 -30.660185,0 -34.643987,-0.0987 -35.42289,-0.8776 z"
           id="path5334"
           inkscape:connector-curvature="0" /><path
           inkscape:connector-curvature="0"
           id="path4801"
           style="isolation:isolate;fill:#ffffff;fill-opacity:1;stroke:none;stroke-width:0.55846894;stroke-miterlimit:10"
           d="m 65.284443,195.47966 h 20.663348 c 1.233102,0 2.233873,1.00078 2.233873,2.23388 v 11.16938 c 0,1.2331 -1.000771,2.23387 -2.233873,2.23387 H 65.284443 c -1.233102,0 -2.233882,-1.00077 -2.233882,-2.23387 v -11.16938 c 0,-1.2331 1.00078,-2.23388 2.233882,-2.23388 z" /><path
           inkscape:connector-curvature="0"
           id="path4803"
           style="isolation:isolate;fill:#ffffff;fill-opacity:1;stroke:none;stroke-width:0.55846894;stroke-miterlimit:10"
           d="m 23.399269,195.47966 h 20.663352 c 1.233097,0 2.233877,1.00078 2.233877,2.23388 v 11.16938 c 0,1.2331 -1.00078,2.23387 -2.233877,2.23387 H 23.399269 c -1.233089,0 -2.233869,-1.00077 -2.233869,-2.23387 v -11.16938 c 0,-1.2331 1.00078,-2.23388 2.233869,-2.23388 z" /><path
           inkscape:connector-curvature="0"
           id="path4805"
           style="isolation:isolate;fill:#ffffff;fill-opacity:1;stroke:none;stroke-width:0.55846894;stroke-miterlimit:10"
           d="m 104.34432,139.77797 h 14.02762 c 1.21467,0 2.20092,0.98626 2.20092,2.20092 v 21.84619 c 0,1.21468 -0.98625,2.20093 -2.20092,2.20093 h -14.02762 c -1.21468,0 -2.20093,-0.98625 -2.20093,-2.20093 v -21.84619 c 0,-1.21466 0.98625,-2.20092 2.20093,-2.20092 z" /><path
           inkscape:connector-curvature="0"
           id="path4809"
           style="isolation:isolate;fill:#ffffff;fill-opacity:1;stroke:none;stroke-width:0.55846894;stroke-miterlimit:10"
           d="M -9.5503897,138.51584 H 4.9698024 c 1.2330976,0 2.233873,1.00077 2.233873,2.23387 V 162.53 c 0,1.23309 -1.0007754,2.23388 -2.233873,2.23388 H -9.5503897 c -1.2331023,0 -2.2338793,-1.00079 -2.2338793,-2.23388 v -21.78029 c 0,-1.2331 1.000777,-2.23387 2.2338793,-2.23387 z" /><rect
           style="isolation:isolate;fill:#ffffff;fill-opacity:1;stroke-width:0.55846894"
           id="rect4811"
           height="67.016273"
           width="89.355026"
           y="125.67103"
           x="9.9960194" /><rect
           style="isolation:isolate;fill:#ffffff;fill-opacity:1;stroke:#b5132c;stroke-width:2.05685949;stroke-miterlimit:4;stroke-dasharray:none;stroke-opacity:1"
           id="rect4813"
           height="55.846889"
           width="78.185638"
           y="131.25574"
           x="15.580715" /><ellipse
           style="isolation:isolate;vector-effect:non-scaling-stroke;fill:#ffffff;fill-opacity:1;stroke-width:0.55846894"
           id="ellipse4815"
           ry="6.9808612"
           rx="13.961722"
           cy="78.20121"
           cx="54.673527" /><rect
           style="isolation:isolate;fill:#ffffff;fill-opacity:1;stroke-width:0.55846894"
           id="rect4817"
           height="17.312536"
           width="2.2338758"
           y="59.771706"
           x="53.556599" /><path
           style="isolation:isolate;fill:#ffffff;fill-opacity:1;stroke-width:0.55846894"
           inkscape:connector-curvature="0"
           id="path4819"
           d="m 50.206334,62.514361 c 0.0257,-2.312065 2.048472,-4.166187 4.514108,-4.138812 2.465641,0.02795 4.446531,1.926709 4.420288,4.238215 -0.0257,2.312065 -2.048464,4.166178 -4.514109,4.138816 -2.46564,-0.02795 -4.44653,-1.926722 -4.420287,-4.238219 z" /><ellipse
           style="isolation:isolate;vector-effect:non-scaling-stroke;fill:#b5132c;fill-opacity:1;stroke-width:0.55846894"
           id="ellipse4821"
           ry="8.3770342"
           rx="6.143158"
           cy="102.21537"
           cx="41.270279" /><ellipse
           style="isolation:isolate;vector-effect:non-scaling-stroke;fill:#b5132c;fill-opacity:1;stroke-width:0.55846894"
           id="ellipse4823"
           ry="8.3770342"
           rx="6.143158"
           cy="102.77383"
           cx="68.07679" /><g
           id="g5039"
           clip-path="url(#clipPath5041-3)"
           transform="matrix(0.33842353,0,0,0.33842353,29.936356,140.11129)"><g
             inkscape:label="Clip"
             id="g5037"
             style="fill:#b5132c;fill-opacity:1"><g
               transform="translate(-0.42214269,-2.5949287)"
               id="g1312"
               style="fill:#b5132c;fill-opacity:1"><path
                 style="fill:#b5132c;fill-opacity:1"
                 inkscape:connector-curvature="0"
                 id="path1292"
                 d="m 66.75,6.96 c -4.516,3.656 -7.574,13.633 -8.68,19.621 4.586,-6.52 11.414,-10.969 18.074,-10.969 7.008,0 13.75,4.477 18.484,10.922 C 93.902,20.3 90.184,10.495 85.586,6.96 83.301,5.202 80.18,3.933 76.145,3.933 c -4.04,0 -7.254,1.293 -9.395,3.027" /><path
                 style="fill:#b5132c;fill-opacity:1"
                 inkscape:connector-curvature="0"
                 id="path1294"
                 d="M 86.086,56.55 C 92.543,44.714 95.094,36.741 94.5,31.71 93.945,28.468 87.383,21.522 83.172,19.999 c 0.582,3.797 -2.41,11.371 -6.27,19.508 0,0 -7.945,15.309 -10.637,19.695 -2.73,4.445 -19.688,34.312 -19.688,34.312 l 7.359,20.531 C 64.383,95.917 80.453,66.878 86.086,56.55" /><path
                 style="fill:#b5132c;fill-opacity:1"
                 inkscape:connector-curvature="0"
                 id="path1304"
                 d="m 98.586,114.194 7.363,-20.531 c 0,0 -11.91,-20.664 -18.949,-32.953 -2.312,4.23 -5.34,9.539 -9.234,16.531 5.281,9.492 11.546,20.613 20.82,36.953" /><path
                 style="fill:#b5132c;fill-opacity:1"
                 inkscape:connector-curvature="0"
                 id="path1306"
                 d="m 69.531,19.944 c -5.195,2.141 -10.734,9.109 -11.656,11.711 -0.762,4.977 1.398,11.762 7.762,23.598 1.598,-3.129 7.266,-13.066 9.145,-17.027 -3.864,-8.157 -5.727,-14.688 -5.251,-18.282" /></g></g></g></g></g></g></g></g><g
   inkscape:groupmode="layer"
   id="layer3"
   inkscape:label="rim"
   style="display:inline"
   sodipodi:insensitive="true"><path
     class="st2"
     d="M 734.9,637.4 V 213.1 L 705.6,196.2 427.8,35.8 367.5,1 307.2,35.8 29.4,196.2 0.1,213.1 v 424.2 l 29.3,16.9 281.3,162.4 56.9,32.8 56.9,-32.8 281.3,-162.4 z M 29.4,621.5 V 231 l 50,-28.9 288.1,-166.3 v 0 L 654.7,201.6 705.6,231 V 621.5 L 367.5,816.7 Z"
     id="path4232"
     style="fill:#b5132c;fill-opacity:1"
     inkscape:connector-curvature="0" /></g></svg>