<?xml version="1.0" encoding="UTF-8" standalone="no"?>
<!-- Generator: Adobe Illustrator 22.0.1, SVG Export Plug-In . SVG Version: 6.00 Build 0)  -->

<svg
   version="1.1"
   id="Layer_1"
   x="0px"
   y="0px"
   viewBox="0 0 630.29578 149.05693"
   xml:space="preserve"
   sodipodi:docname="naomi_logo.svg"
   inkscape:version="1.2.2 (1:1.2.2+202212051552+b0a8486541)"
   inkscape:export-filename="../../hint/src/app/static/public/images/naomi_logo.png"
   inkscape:export-xdpi="151.35156"
   inkscape:export-ydpi="151.35156"
   width="630.29578"
   height="149.05693"
   xmlns:inkscape="http://www.inkscape.org/namespaces/inkscape"
   xmlns:sodipodi="http://sodipodi.sourceforge.net/DTD/sodipodi-0.dtd"
   xmlns:xlink="http://www.w3.org/1999/xlink"
   xmlns="http://www.w3.org/2000/svg"
   xmlns:svg="http://www.w3.org/2000/svg"
   xmlns:rdf="http://www.w3.org/1999/02/22-rdf-syntax-ns#"
   xmlns:cc="http://creativecommons.org/ns#"
   xmlns:dc="http://purl.org/dc/elements/1.1/"><metadata
   id="metadata4673"><rdf:RDF><cc:Work
       rdf:about=""><dc:format>image/svg+xml</dc:format><dc:type
         rdf:resource="http://purl.org/dc/dcmitype/StillImage" /><dc:title>broom</dc:title></cc:Work></rdf:RDF></metadata><defs
   id="defs4671"><inkscape:perspective
   sodipodi:type="inkscape:persp3d"
   inkscape:vp_x="0 : -702.44307 : 1"
   inkscape:vp_y="0 : 1.1737089 : 0"
   inkscape:vp_z="1 : -702.44307 : 1"
   inkscape:persp3d-origin="0.5 : -702.60973 : 1"
   id="perspective4366" /><clipPath
   id="_clipPath_EHexGvzAMKosfSbYewhBiDPisItqZZkf"><rect
     x="-49"
     y="129.5"
     width="237"
     height="273.5"
     id="rect4796" /></clipPath><clipPath
   id="clipPath5041"
   clipPathUnits="userSpaceOnUse"><g
     id="use5043"
     inkscape:label="Clip"><g
       id="g5586"
       transform="translate(-0.42214269,-2.5949287)">
	<path
   d="m 66.75,6.96 c -4.516,3.656 -7.574,13.633 -8.68,19.621 4.586,-6.52 11.414,-10.969 18.074,-10.969 7.008,0 13.75,4.477 18.484,10.922 C 93.902,20.3 90.184,10.495 85.586,6.96 83.301,5.202 80.18,3.933 76.145,3.933 c -4.04,0 -7.254,1.293 -9.395,3.027"
   id="path5578"
   inkscape:connector-curvature="0"
   style="fill:#e31837" />
	<path
   d="M 86.086,56.55 C 92.543,44.714 95.094,36.741 94.5,31.71 93.945,28.468 87.383,21.522 83.172,19.999 c 0.582,3.797 -2.41,11.371 -6.27,19.508 0,0 -7.945,15.309 -10.637,19.695 -2.73,4.445 -19.688,34.312 -19.688,34.312 l 7.359,20.531 C 64.383,95.917 80.453,66.878 86.086,56.55"
   id="path5580"
   inkscape:connector-curvature="0"
   style="fill:#e31837" />
	
	
	
	
	<path
   d="m 98.586,114.194 7.363,-20.531 c 0,0 -11.91,-20.664 -18.949,-32.953 -2.312,4.23 -5.34,9.539 -9.234,16.531 5.281,9.492 11.546,20.613 20.82,36.953"
   id="path5582"
   inkscape:connector-curvature="0"
   style="fill:#e31837" />
	<path
   d="m 69.531,19.944 c -5.195,2.141 -10.734,9.109 -11.656,11.711 -0.762,4.977 1.398,11.762 7.762,23.598 1.598,-3.129 7.266,-13.066 9.145,-17.027 -3.864,-8.157 -5.727,-14.688 -5.251,-18.282"
   id="path5584"
   inkscape:connector-curvature="0"
   style="fill:#e31837" />
	
	
</g></g></clipPath><clipPath
   id="clipPath5041-3"
   clipPathUnits="userSpaceOnUse"><use
     height="100%"
     width="100%"
     id="use5043-9"
     xlink:href="#g5037"
     y="0"
     x="0" /></clipPath><clipPath
   clipPathUnits="userSpaceOnUse"
   id="clipPath3136"><path
     sodipodi:type="star"
     style="fill:#00ff00;fill-opacity:1;stroke:none;stroke-width:65.1802;stroke-linecap:butt;stroke-linejoin:miter;stroke-miterlimit:2;stroke-dasharray:none;stroke-opacity:1;paint-order:normal"
     id="path3138"
     sodipodi:sides="6"
     sodipodi:cx="375.62952"
     sodipodi:cy="420.5249"
     sodipodi:r1="414.84982"
     sodipodi:r2="359.27054"
     sodipodi:arg1="0.52359878"
     sodipodi:arg2="1.0471976"
     inkscape:flatsided="true"
     inkscape:rounded="0"
     inkscape:randomized="0"
     d="M 734.9,627.94982 375.62951,835.37473 16.35903,627.94981 16.359032,213.09999 375.62952,5.6750793 734.9,213.09999 Z"
     transform="matrix(0.72013403,0,0,0.72785554,194.8798,50.361067)" /></clipPath><clipPath
   clipPathUnits="userSpaceOnUse"
   id="clipPath3140"><path
     sodipodi:type="star"
     style="fill:#00ff00;fill-opacity:1;stroke:none;stroke-width:65.1802;stroke-linecap:butt;stroke-linejoin:miter;stroke-miterlimit:2;stroke-dasharray:none;stroke-opacity:1;paint-order:normal"
     id="path3142"
     sodipodi:sides="6"
     sodipodi:cx="375.62952"
     sodipodi:cy="420.5249"
     sodipodi:r1="414.84982"
     sodipodi:r2="359.27054"
     sodipodi:arg1="0.52359878"
     sodipodi:arg2="1.0471976"
     inkscape:flatsided="true"
     inkscape:rounded="0"
     inkscape:randomized="0"
     d="M 734.9,627.94982 375.62951,835.37473 16.35903,627.94981 16.359032,213.09999 375.62952,5.6750793 734.9,213.09999 Z" /></clipPath><clipPath
   clipPathUnits="userSpaceOnUse"
   id="clipPath3144"><path
     sodipodi:type="star"
     style="fill:#00ff00;fill-opacity:1;stroke:none;stroke-width:65.1802;stroke-linecap:butt;stroke-linejoin:miter;stroke-miterlimit:2;stroke-dasharray:none;stroke-opacity:1;paint-order:normal"
     id="path3147"
     sodipodi:sides="6"
     sodipodi:cx="375.62952"
     sodipodi:cy="420.5249"
     sodipodi:r1="414.84982"
     sodipodi:r2="359.27054"
     sodipodi:arg1="0.52359878"
     sodipodi:arg2="1.0471976"
     inkscape:flatsided="true"
     inkscape:rounded="0"
     inkscape:randomized="0"
     d="M 734.9,627.94982 375.62951,835.37473 16.35903,627.94981 16.359032,213.09999 375.62952,5.6750793 734.9,213.09999 Z" /></clipPath>

</defs><sodipodi:namedview
   pagecolor="#ffffff"
   bordercolor="#666666"
   borderopacity="1"
   objecttolerance="10"
   gridtolerance="10"
   guidetolerance="10"
   inkscape:pageopacity="0"
   inkscape:pageshadow="2"
   inkscape:window-width="1920"
   inkscape:window-height="1007"
   id="namedview4669"
   showgrid="false"
   inkscape:zoom="1.4009346"
   inkscape:cx="208.07539"
   inkscape:cy="-44.256171"
   inkscape:window-x="0"
   inkscape:window-y="0"
   inkscape:window-maximized="1"
   inkscape:current-layer="layer4"
   showguides="true"
   inkscape:showpageshadow="2"
   inkscape:pagecheckerboard="0"
   inkscape:deskcolor="#d1d1d1"><sodipodi:guide
     position="213.42896,130.49789"
     orientation="0,-1"
     id="guide1707"
     inkscape:locked="false" /><sodipodi:guide
     position="159.89326,149.05693"
     orientation="1,0"
     id="guide1709"
     inkscape:locked="false" /></sodipodi:namedview>
<style
   type="text/css"
   id="style4217">
	.st0{fill:#ED7D15;}
	.st1{opacity:0.25;fill:url(#SVGID_1_);enable-background:new    ;}
	.st2{fill:#AC5D12;}
	.st3{fill:#E6B35A;}
	.st4{fill:#E5B259;}
	.st5{fill:#FFFFFF;}
	.st6{stroke:#000000;stroke-width:10;stroke-miterlimit:10;}
	.st7{fill:none;stroke:#000000;stroke-width:0.75;stroke-miterlimit:10;}
</style>

<title
   id="title4221">broom</title>
<linearGradient
   id="SVGID_1_"
   gradientUnits="userSpaceOnUse"
   x1="366.1355"
   y1="974.39001"
   x2="367.43549"
   y2="510.87"
   gradientTransform="matrix(1,0,0,-1,54.511848,911.55924)">
	<stop
   offset="0"
   style="stop-color:#FFFFFF;stop-opacity:0.83"
   id="stop4223" />
	<stop
   offset="0.56"
   style="stop-color:#FFFFFF;stop-opacity:0.37"
   id="stop4225" />
	<stop
   offset="1"
   style="stop-color:#FFFFFF;stop-opacity:0"
   id="stop4227" />
</linearGradient>



























































































































































































































<g
   inkscape:groupmode="layer"
   id="layer4"
   inkscape:label="text"
   style="display:inline"
   transform="translate(-61.959979,-343.20313)">



<flowRoot
   xml:space="preserve"
   id="flowRoot5625"
   style="font-style:normal;font-weight:normal;font-size:40px;line-height:1.25;font-family:sans-serif;letter-spacing:0px;word-spacing:0px;fill:#000000;fill-opacity:1;stroke:none"><flowRegion
     id="flowRegion5627"><rect
       id="rect5629"
       width="194.45251"
       height="208.77496"
       x="136.27962"
       y="260.4455" /></flowRegion><flowPara
     id="flowPara5631" /></flowRoot>

<text
   xml:space="preserve"
   style="font-style:normal;font-weight:normal;font-size:53.8271px;line-height:1.25;font-family:sans-serif;letter-spacing:0px;word-spacing:0px;display:inline;fill:none;fill-opacity:1;stroke:none;stroke-width:45.3543;stroke-linecap:butt;stroke-linejoin:miter;stroke-miterlimit:2;stroke-dasharray:none;stroke-opacity:1;paint-order:normal"
   x="57.215477"
   y="440.18671"
   id="text5808-3-5"><tspan
     sodipodi:role="line"
     id="tspan5806-6-4"
     x="57.215477"
     y="440.18671"
     style="font-style:normal;font-variant:normal;font-weight:normal;font-stretch:normal;font-size:134.568px;line-height:1.25;font-family:Roboto;-inkscape-font-specification:Roboto;fill:none;fill-opacity:1;stroke:none;stroke-width:45.3543;stroke-linecap:butt;stroke-linejoin:miter;stroke-miterlimit:2;stroke-dasharray:none;stroke-opacity:1;paint-order:normal">Naomi</tspan></text>


<g
   id="g1905"
   transform="matrix(1,0,0,1.0440082,16.174759,285.41155)" /><text
   xml:space="preserve"
   style="font-style:normal;font-weight:normal;font-size:66.8738px;line-height:1.25;font-family:sans-serif;letter-spacing:0px;word-spacing:0px;display:inline;fill:#e31837;fill-opacity:1;stroke:none;stroke-width:1.67184;stroke-opacity:0.978632"
   x="209.47929"
   y="481.35883"
   id="text5808-3"><tspan
     sodipodi:role="line"
     id="tspan5806-6"
     x="209.47929"
     y="481.35883"
     style="font-style:normal;font-variant:normal;font-weight:500;font-stretch:normal;font-size:167.184px;line-height:1.25;font-family:Roboto;-inkscape-font-specification:'Roboto Medium';fill:#e31837;fill-opacity:1;stroke:none;stroke-width:1.67184;stroke-opacity:0.978632">Naomi</tspan></text>



<text
   xml:space="preserve"
   style="font-style:normal;font-weight:normal;font-size:40px;line-height:1.25;font-family:sans-serif;letter-spacing:0px;word-spacing:0px;fill:#000000;fill-opacity:1;stroke:none"
   x="-325.49701"
   y="35.40226"
   id="text4741" />




<g
   id="g3128"
   transform="matrix(25.74444,0,0,25.74444,-3444.5002,-13895.049)"><g
     id="g1957"
     transform="matrix(0.27442276,0,0,0.27442276,61.161338,517.96969)"><g
       id="g3105"
       transform="matrix(0.30841954,0,0,0.30841954,218.16391,98.572579)"><g
         id="g3126"
         transform="matrix(0.44625175,0,0,0.44625175,184.51934,69.202074)"><path
           id="path5334"
           style="fill:#e31837;fill-opacity:1;stroke-width:0.558469"
           d="m 54.67296,76.80598 c -30.660125,0 -34.643673,0.09688 -35.422574,0.875772 -0.767303,0.767302 -0.877781,3.570822 -0.877781,22.300052 0,18.729216 0.110478,21.530746 0.877781,22.298046 0.778901,0.7789 4.762449,0.87778 35.422574,0.87778 30.660114,0 34.643681,-0.0989 35.422573,-0.87778 0.767303,-0.7673 0.877781,-3.56883 0.877781,-22.298046 0,-18.72923 -0.110478,-21.53275 -0.877781,-22.300052 C 89.316641,76.902857 85.333074,76.80598 54.67296,76.80598 Z M 41.271235,93.837338 a 6.143158,8.3770342 0 0 1 6.142457,8.378082 6.143158,8.3770342 0 0 1 -6.142457,8.37608 6.143158,8.3770342 0 0 1 -6.144465,-8.37608 6.143158,8.3770342 0 0 1 6.144465,-8.378082 z m 26.805458,0.560414 a 6.143158,8.3770342 0 0 1 6.142457,8.376078 6.143158,8.3770342 0 0 1 -6.142457,8.37608 6.143158,8.3770342 0 0 1 -6.142457,-8.37608 6.143158,8.3770342 0 0 1 6.142457,-8.376078 z" /><path
           inkscape:connector-curvature="0"
           id="path4801"
           style="isolation:isolate;fill:#e31837;fill-opacity:1;stroke:none;stroke-width:0.558469;stroke-miterlimit:10"
           d="m 65.284443,195.47966 h 20.663348 c 1.233102,0 2.233873,1.00078 2.233873,2.23388 v 11.16938 c 0,1.2331 -1.000771,2.23387 -2.233873,2.23387 H 65.284443 c -1.233102,0 -2.233882,-1.00077 -2.233882,-2.23387 v -11.16938 c 0,-1.2331 1.00078,-2.23388 2.233882,-2.23388 z" /><path
           inkscape:connector-curvature="0"
           id="path4803"
           style="isolation:isolate;fill:#e31837;fill-opacity:1;stroke:none;stroke-width:0.558469;stroke-miterlimit:10"
           d="m 23.399269,195.47966 h 20.663352 c 1.233097,0 2.233877,1.00078 2.233877,2.23388 v 11.16938 c 0,1.2331 -1.00078,2.23387 -2.233877,2.23387 H 23.399269 c -1.233089,0 -2.233869,-1.00077 -2.233869,-2.23387 v -11.16938 c 0,-1.2331 1.00078,-2.23388 2.233869,-2.23388 z" /><path
           inkscape:connector-curvature="0"
           id="path4805"
           style="isolation:isolate;fill:#e31837;fill-opacity:1;stroke:none;stroke-width:0.558469;stroke-miterlimit:10"
           d="m 104.34432,139.77797 h 14.02762 c 1.21467,0 2.20092,0.98626 2.20092,2.20092 v 21.84619 c 0,1.21468 -0.98625,2.20093 -2.20092,2.20093 h -14.02762 c -1.21468,0 -2.20093,-0.98625 -2.20093,-2.20093 v -21.84619 c 0,-1.21466 0.98625,-2.20092 2.20093,-2.20092 z" /><path
           inkscape:connector-curvature="0"
           id="path4809"
           style="isolation:isolate;fill:#e31837;fill-opacity:1;stroke:none;stroke-width:0.558469;stroke-miterlimit:10"
           d="M -9.5503897,138.51584 H 4.9698024 c 1.2330976,0 2.233873,1.00077 2.233873,2.23387 V 162.53 c 0,1.23309 -1.0007754,2.23388 -2.233873,2.23388 H -9.5503897 c -1.2331023,0 -2.2338793,-1.00079 -2.2338793,-2.23388 v -21.78029 c 0,-1.2331 1.000777,-2.23387 2.2338793,-2.23387 z" /><path
           id="rect4811"
           style="isolation:isolate;fill:#e31837;fill-opacity:1;stroke-width:0.558469"
           d="m 9.9965277,125.67045 v 67.01666 H 99.3514 v -67.01666 z m 5.5840523,5.58606 h 78.186768 v 55.84655 H 15.58058 Z" /><ellipse
           style="isolation:isolate;vector-effect:non-scaling-stroke;fill:#e31837;fill-opacity:1;stroke-width:0.558469"
           id="ellipse4815"
           ry="6.9808612"
           rx="13.961722"
           cy="78.20121"
           cx="54.673527" /><rect
           style="isolation:isolate;fill:#e31837;fill-opacity:1;stroke-width:0.558469"
           id="rect4817"
           height="17.312536"
           width="2.2338758"
           y="59.771706"
           x="53.556599" /><path
           style="isolation:isolate;fill:#e31837;fill-opacity:1;stroke-width:0.558469"
           inkscape:connector-curvature="0"
           id="path4819"
           d="m 50.206334,62.514361 c 0.0257,-2.312065 2.048472,-4.166187 4.514108,-4.138812 2.465641,0.02795 4.446531,1.926709 4.420288,4.238215 -0.0257,2.312065 -2.048464,4.166178 -4.514109,4.138816 -2.46564,-0.02795 -4.44653,-1.926722 -4.420287,-4.238219 z" /><g
           id="g5039"
           clip-path="url(#clipPath5041-3)"
           transform="matrix(0.40408621,0,0,0.40408621,24.956442,136.40341)"><g
             inkscape:label="Clip"
             id="g5037"
             style="fill:#b5132c;fill-opacity:1"><g
               transform="translate(-0.42214269,-2.5949287)"
               id="g1312"
               style="fill:#b5132c;fill-opacity:1"><path
                 style="fill:#e31837;fill-opacity:1"
                 inkscape:connector-curvature="0"
                 id="path1292"
                 d="m 66.75,6.96 c -4.516,3.656 -7.574,13.633 -8.68,19.621 4.586,-6.52 11.414,-10.969 18.074,-10.969 7.008,0 13.75,4.477 18.484,10.922 C 93.902,20.3 90.184,10.495 85.586,6.96 83.301,5.202 80.18,3.933 76.145,3.933 c -4.04,0 -7.254,1.293 -9.395,3.027" /><path
                 style="fill:#e31837;fill-opacity:1"
                 inkscape:connector-curvature="0"
                 id="path1294"
                 d="M 86.086,56.55 C 92.543,44.714 95.094,36.741 94.5,31.71 93.945,28.468 87.383,21.522 83.172,19.999 c 0.582,3.797 -2.41,11.371 -6.27,19.508 0,0 -7.945,15.309 -10.637,19.695 -2.73,4.445 -19.688,34.312 -19.688,34.312 l 7.359,20.531 C 64.383,95.917 80.453,66.878 86.086,56.55" /><path
                 style="fill:#e31837;fill-opacity:1"
                 inkscape:connector-curvature="0"
                 id="path1304"
                 d="m 98.586,114.194 7.363,-20.531 c 0,0 -11.91,-20.664 -18.949,-32.953 -2.312,4.23 -5.34,9.539 -9.234,16.531 5.281,9.492 11.546,20.613 20.82,36.953" /><path
                 style="fill:#e31837;fill-opacity:1"
                 inkscape:connector-curvature="0"
                 id="path1306"
                 d="m 69.531,19.944 c -5.195,2.141 -10.734,9.109 -11.656,11.711 -0.762,4.977 1.398,11.762 7.762,23.598 1.598,-3.129 7.266,-13.066 9.145,-17.027 -3.864,-8.157 -5.727,-14.688 -5.251,-18.282" /></g></g></g></g></g></g></g></g></svg>
